<?xml version="1.0" encoding="utf-8"?>
<!-- Generator: Adobe Illustrator 19.0.0, SVG Export Plug-In . SVG Version: 6.00 Build 0)  -->
<svg version="1.1" id="Layer_1" xmlns="http://www.w3.org/2000/svg" xmlns:xlink="http://www.w3.org/1999/xlink" x="0px" y="0px"
	 viewBox="0 0 317.2 421.8" style="enable-background:new 0 0 317.2 421.8;" xml:space="preserve">
<style type="text/css">
	.st0{fill:#1A1A1A;}
</style>
<polygon class="st0" points="317.2,81.2 317.2,80.7 216.2,96.2 206.2,0 205.7,0.1 215.6,95.9 85.2,1 84.9,1.4 215.2,96.2 0,104 
	0,104.5 215.6,96.7 120.1,421.7 120.5,421.8 215.8,98 225.2,340.3 225.7,340.3 216.2,97.5 268,195.1 268.4,194.9 216.4,96.7 
	305.4,99.5 305.5,99 218.7,96.3 "/>
<g>
	<g>
		<path class="st0" d="M567.5,222.9H567c0-62.7-30.9-113.7-69-113.7v-0.5c38,0,69-51,69-113.7h0.5c0,62.7,30.9,113.7,69,113.7v0.5
			C598.4,109.2,567.5,160.2,567.5,222.9z M502.6,108.9c34.2,3.7,61.7,48.3,64.6,104.2c2.9-55.9,30.4-100.5,64.6-104.2
			c-34.2-3.7-61.7-48.3-64.6-104.2C564.3,60.6,536.8,105.2,502.6,108.9z"/>
	</g>
</g>
</svg>
