<?xml version="1.0" encoding="utf-8"?>
<!-- Generator: Adobe Illustrator 19.0.0, SVG Export Plug-In . SVG Version: 6.00 Build 0)  -->
<svg version="1.1" id="Layer_1" xmlns="http://www.w3.org/2000/svg" xmlns:xlink="http://www.w3.org/1999/xlink" x="0px" y="0px"
	 viewBox="0 0 138.4 227.9" style="enable-background:new 0 0 138.4 227.9;" xml:space="preserve">
<style type="text/css">
	.st0{fill:#1A1A1A;}
</style>
<polygon class="st0" points="-180.8,86.2 -180.8,85.7 -281.8,101.2 -291.8,5 -292.3,5.1 -282.4,100.9 -412.8,6 -413.1,6.4 
	-282.8,101.2 -498,109 -498,109.5 -282.4,101.7 -377.9,426.7 -377.5,426.8 -282.2,103 -272.8,345.3 -272.3,345.3 -281.8,102.5 
	-230,200.1 -229.6,199.9 -281.6,101.7 -192.6,104.5 -192.5,104 -279.3,101.3 "/>
<g>
	<g>
		<path class="st0" d="M69.5,227.9H69C69,165.2,38,114.2,0,114.2v-0.5c38,0,69-51,69-113.7h0.5c0,62.7,30.9,113.7,69,113.7v0.5
			C100.4,114.2,69.5,165.2,69.5,227.9z M4.6,113.9c34.2,3.7,61.7,48.3,64.6,104.2c2.9-55.9,30.4-100.5,64.6-104.2
			C99.6,110.2,72.1,65.6,69.2,9.7C66.3,65.6,38.8,110.2,4.6,113.9z"/>
	</g>
</g>
</svg>
