<?xml version="1.0" encoding="utf-8"?>
<!-- Generator: Adobe Illustrator 17.0.0, SVG Export Plug-In . SVG Version: 6.00 Build 0)  -->
<!DOCTYPE svg PUBLIC "-//W3C//DTD SVG 1.1//EN" "http://www.w3.org/Graphics/SVG/1.1/DTD/svg11.dtd">
<svg version="1.1" id="Layer_1" xmlns="http://www.w3.org/2000/svg" xmlns:xlink="http://www.w3.org/1999/xlink" x="0px" y="0px"
	 width="15px" height="15px" viewBox="0 0 15 15" enable-background="new 0 0 15 15" xml:space="preserve">
<rect x="0.048" y="0" fill="#AD8A10" width="15" height="15"/>
<polygon fill="#FFFFFF" points="13.408,2.041 13.008,1.64 7.548,7.099 2.089,1.64 1.688,2.041 7.147,7.5 1.688,12.959 2.089,13.36 
	7.548,7.901 13.008,13.36 13.408,12.959 7.949,7.5 "/>
<rect x="0" y="0.048" fill="#AD8A10" width="15" height="15"/>
<polygon fill="#FFFFFF" points="12.959,13.408 13.36,13.008 7.901,7.548 13.36,2.089 12.959,1.688 7.5,7.147 2.041,1.688 
	1.64,2.089 7.099,7.548 1.64,13.008 2.041,13.408 7.5,7.949 "/>
</svg>
